<svg xmlns="http://www.w3.org/2000/svg" width="1958" height="395" fill="none" viewBox="0 0 1958 395"><path fill="#9cd747" d="M1881.23 185.2c0-49.6 8-137.6 21.6-178.8 1.2-3.2 5.2-5.6 7.6-5.6 5.6 0 25.2 2.4 34.4 8.4 4.4 3.2-3.6 10.8 0 14 5.6 5.2 17.2 8.8 11.6 20-14 49.6-34 100.8-42.4 161.2-5.6 6.8-32.8-5.2-32.8-19.2m-30 101.2c0-13.2 12.4-38.4 48-38.4 9.2 0 23.6 7.6 23.6 26.4 0 12-6.8 47.6-35.2 47.6-18 0-36.4-21.6-36.4-35.6m-193.69-69.2c2.4-52.4 35.2-119.2 67.6-126.8 6.8 2.8 12 6.4 13.2 10 0 0 7.6-4.8 18.4-4.8 54 0 62.8 39.2 61.6 81.2-2.4 44.4-22 140.4-88.4 140.4-54.4 0-74-55.6-72.4-100m45.2 14c-1.6 28.4 5.2 51.6 20.4 51.6 35.2 0 49.6-100 50.8-122.4.8-10.8 4-37.6-11.2-37.6-22 0-41.2 66-45.6 87.2-.4 1.6-8.8-1.6-10.8-3.2 0 0-2.8 10.4-3.6 24.4m-193.12 104.4c6.4 11.6 24 25.2 31.2 29.2 22.8-8 39.6-46.8 48.4-85.6-8.4 9.6-22.4 26-36.8 26-40.4 0-60.8-30.4-62-79.2-1.6-72.4 33.6-134.4 90.8-134.4 29.6 0 56 12.8 56.4 37.6.4 2.4 0 5.6 0 5.6 2.8 0 22.8 1.6 21.6 10.8-5.2 31.6-10.4 86-26 147.2-17.2 68.4-45.2 102-80.8 102-31.2 0-58-12.8-65.6-23.2-14.8-15.2-.8-39.2 22.8-36m31.2-95.2c-.4 23.2 7.6 34 17.2 34 19.2 0 40-56.8 42.8-94 0 0-4.8.4-9.6-5.6 4-9.2 6-29.2 6.4-38 0-8-4-15.2-10.8-15.2-26.4 0-45.6 79.6-46 118.8m-283.02 14.8c0-70 34.8-169.6 82.4-169.6 19.2 0 49.6 14.8 49.6 55.2 0 50.8-22.8 94.4-51.2 94.4-21.2 0-28.8-18-28.8-18s-8 20.8-8 50.8c0 19.2 8 30.8 25.2 30.8 34.4 0 58.4-46.8 60.4-71.2 0 0 2-4 8-4 12.4 0 22.4 7.6 22.4 21.6 0 33.6-26 88.4-82 88.4-39.2 0-78-28.4-78-78.4m56.8-60s1.6 9.6 9.6 9.6c13.2 0 24.4-41.2 24.8-73.2 0-15.6-2.4-17.6-4.4-17.6-1.6 0-3.2 1.6-6 6.8-9.2 20-19.6 49.6-24 74.4"/><path fill="#9cd747" d="M1159.71 200.4h-2.4c-12.8 30.4-22.8 71.2-26 104.8-2.4 3.2-9.2 4.4-14.4 4.4-37.2.8-41.6-63.2-41.6-108.8 0-28.4 6-105.6 24.4-105.6 15.2 0 37.6 11.6 36 19.2-7.2 28.8-11.6 57.2-12 86 0 7.6.8 14 .8 18h2.4c15.2-39.2 29.6-84.4 37.6-119.6 2.8-7.6 6.4-10 15.2-10 15.2 0 33.2 10.8 31.6 17.6-8 39.2-14 87.6-12.4 125.6h2.8c4.8-22 34-151.6 63.2-160.4 5.6-.8 27.2 4 27.2 15.2 0 9.2-10.8 20.8-17.6 36.4-24.8 56-50.4 132.8-53.6 198.8 0 0-5.6 5.6-15.6 5.6-28.8 0-42-23.6-42.8-42.8-.8-11.6-3.2-77.6-2.8-84.4m-273.266 85.2c0-12.8 8.8-38.4 42.8-38.4 14 0 29.6 14 29.6 38.4 0 44.4-20.4 79.2-45.2 93.2-19.2 10.8-38.8 2.4-40-18 26-14.8 42-39.6 42.8-52-9.6 1.6-30-3.6-30-23.2m-163.669-68.4c2.4-52.4 35.2-119.2 67.6-126.8 6.8 2.8 12 6.4 13.2 10 0 0 7.6-4.8 18.4-4.8 54 0 62.8 39.2 61.6 81.2-2.4 44.4-22 140.4-88.4 140.4-54.4 0-74-55.6-72.4-100m45.2 14c-1.6 28.4 5.2 51.6 20.4 51.6 35.2 0 49.6-100 50.8-122.4.8-10.8 4-37.6-11.2-37.6-22 0-41.2 66-45.6 87.2-.4 1.6-8.8-1.6-10.8-3.2 0 0-2.8 10.4-3.6 24.4"/><path fill="#9cd747" d="M653.141 183.6h-4.8c-16.8 33.2-37.6 94.4-38 129.6 0 0-8.8 6.4-22.8 6.4-23.2 0-29.6-21.6-29.6-52 0-85.2 15.6-169.6 41.6-169.6 9.2 0 26 4.8 24.4 14-7.2 36-17.2 70.4-18.4 107.6h1.6c15.6-41.6 31.6-86 54-126.4 1.2-3.2 5.6-5.6 12.4-5.6 14 0 43.6 10 42 22.8-4.4 41.2-28.4 98-28.4 145.2 0 19.2 4.8 28.4 15.6 28.4 12.8 0 22.8-26 26-35.6 0 0 19.2-.8 19.2 16.4s-22 52-58 52c-38.8 0-49.2-30-48.8-60.4.8-16 7.6-53.6 12-72.8"/><path fill="#9cd747" d="m485.35 250.4-3.2-.4c-6.4 18.4-24 58.8-47.2 58.8-22.4 0-54.8-28.4-54.8-55.6 0-46.8 24.8-150 43.6-150 16.4 0 30.8 8 34 13.2-14.8 46-30.4 108.8-27.6 148.8l5.2 1.6c26.4-35.2 52.8-122.8 59.6-162.8.4-3.6 5.2-5.2 11.6-5.2 14.8 0 36 12.4 35.6 19.2-1.6 16.8-18 97.6-18.8 125.6-.8 12 2.8 29.6 15.2 29.6 16.8 0 25.6-39.2 25.6-39.2 3.2 0 20.8-.4 20.8 15.6 0 18.8-25.2 54.8-57.6 54.8-38 0-43.6-31.2-42-54"/><path fill="#9cd747" d="m303.431 178 2.4 1.2c10-24 18.4-58 23.6-76 3.2-10.8 15.2-14.4 31.6-10.8 14 3.2 17.6 9.6 17.2 17.2-.4 13.6-19.2 38.8-20 66 0 5.2 4.4 11.2 10.4 11.2 18.4 0 25.6-28.8 28-28.8s15.2.8 15.2 12c-.4 19.2-17.2 45.6-43.6 45.6-30 0-35.6-21.6-36.8-40-9.2 21.6-28.8 74.8-30.8 132-11.6 5.6-53.2-8.4-53.2-17.2 0-11.6 4.4-37.6 10.4-118 2.4-34.4 4.8-75.6 22.4-75.6 12.8 0 32 11.2 32 11.2-1.6 20.4-7.2 48-8.8 70M35.4 332.8c0-1.2 0-2.8.4-4-8-1.2-14-2.8-16.8-5.2-12-10.4-8.4-21.6-.4-34.4 2.4.4 11.2 3.6 22.4 6.4 12.8-84 34-202.4 43.2-225.2 7.6-19.2 34.4-14 48.8-4-4.4 15.2-10.4 47.6-16.8 85.2 3.2 0 6.4 0 9.6.4 35.6-12 58-34.8 58-66.8 0-26.4-22-44.8-56.8-44.8-41.2 0-62 18-74.4 34.4-1.2 1.2 2 3.6 1.2 4.8-2.8 3.2-21.2 16.8-25.2 16.8C18.2 96.4.2 81.6 1 75.2 1 75.2 33.8 14 126.2 14c67.6 0 107.2 36 107.2 76.8 0 28.8-22 54-55.2 71.2 35.6 13.2 60.4 38 60.4 72 0 61.2-71.6 98.4-144 98.4h-7.2c-.4 1.6-.8 3.6-.8 5.2-2 8.4-6 9.6-12.8 9.6-14-.8-36-11.6-38.4-14.4m75.2-149.6c-6.8 42.4-14 86.8-18.8 118.4 47.6-3.2 90.4-27.6 90.4-76.8 0-30-30.8-44.4-66.4-42.4-1.6 0-3.2.4-5.2.8"/></svg>
