<svg height="400" viewBox="0 0 400 400" width="400" xmlns="http://www.w3.org/2000/svg"><g fill="none"><circle cx="200" cy="200" fill="#000" r="200"/><path d="m125.32 3.73586787v136.71666713c0 1.083333-.78 2.47-1.733333 2.99l-118.386667 68.336666c-2.86 1.646667-5.2.303334-5.2-2.99v-136.7166665c0-1.0833333.78-2.47 1.73333333-2.99l118.38666667-68.33666663c2.86-1.69 5.2-.34666667 5.2 2.99zm14.56-3.03333334 27.82 16.07666667c.953333.5633333 1.733333 1.9066667 1.733333 2.99v100.5333338c0 1.083333.78 2.47 1.733334 2.99l5.2 2.99c2.86 1.646666 5.2.303333 5.2-2.99v-92.5166671c0-3.2933334 2.34-4.6366667 5.2-2.99l24.7 14.2566666c.953333.5633334 1.733333 1.9066667 1.733333 2.99v100.5333335c0 1.083333.78 2.47 1.733333 2.99l5.2 2.99c2.86 1.646667 5.2.303333 5.2-2.99v-92.5166668c0-3.2933333 2.34-4.6366667 5.2-2.99l27.733334 16.0333333c.953333.5633334 1.733333 1.9066667 1.733333 2.99v136.7166665c0 3.293334-2.34 4.636667-5.2 2.99l-118.386667-68.336666c-.953333-.563334-1.733333-1.906667-1.733333-2.99v-136.71666713c0-3.33666667 2.34-4.68 5.2-3.03333334zm-54.5133333 112.45000047-48.9666667 28.296666c-.9533333.563334-1.7333333 1.906667-1.7333333 2.99v4.116667c0 3.293333 2.34 4.636667 5.2 2.99l48.9666666-28.296667c.9533334-.563333 1.7333334-1.906666 1.7333334-2.99v-4.116666c0-3.293334-2.34-4.636667-5.2-2.99zm0-52.2166671-48.9666667 28.2966666c-.9533333.5633334-1.7333333 1.9066667-1.7333333 2.99v4.1166667c0 3.2933333 2.34 4.6366668 5.2 2.99l48.9666666-28.2966667c.9533334-.5633333 1.7333334-1.9066666 1.7333334-2.99v-4.1166666c0-3.2933334-2.34-4.6366667-5.2-2.99z" fill="#fff" transform="translate(70 94)"/></g></svg>